<svg width="30" height="30" viewBox="0 0 30 30" fill="none" xmlns="http://www.w3.org/2000/svg">
    <path d="M20.0747 26.9325C20.4262 26.5809 20.6237 26.1041 20.6237 25.6069C20.6237 25.1097 20.4262 24.6329 20.0747 24.2813L10.7934 15L20.0747 5.71875C20.4162 5.36512 20.6052 4.89149 20.6009 4.39987C20.5967 3.90825 20.3995 3.43798 20.0518 3.09034C19.7042 2.7427 19.2339 2.54551 18.7423 2.54124C18.2507 2.53697 17.7771 2.72596 17.4234 3.0675L6.81655 13.6744C6.46504 14.026 6.26758 14.5028 6.26758 15C6.26758 15.4972 6.46504 15.974 6.81655 16.3256L17.4234 26.9325C17.775 27.284 18.2519 27.4815 18.7491 27.4815C19.2462 27.4815 19.7231 27.284 20.0747 26.9325Z" fill="#5D5FEF"/>
</svg>
